name C:\Users\Nicos\Documents\OpenSimProjects\SprintingProject\Study1\PredictiveResults\IC_pred_Sprinting_optimum_28-October-2023__01-01-41___HTD_Minus_2_p02_maxVel_01.mot
datacolumns 38
datarows 13
range 0.15754441 0.16972974
endheader
                time	/jointset/ground_pelvis/pelvis_tilt/value	/jointset/ground_pelvis/pelvis_list/value	/jointset/ground_pelvis/pelvis_rotation/value	/jointset/ground_pelvis/pelvis_tx/value	/jointset/ground_pelvis/pelvis_ty/value	/jointset/ground_pelvis/pelvis_tz/value	/jointset/hip_r/hip_flexion_r/value	/jointset/hip_r/hip_adduction_r/value	/jointset/hip_r/hip_rotation_r/value	/jointset/knee_r/knee_angle_r/value	/jointset/ankle_r/ankle_angle_r/value	/jointset/subtalar_r/subtalar_angle_r/value	/jointset/mtp_r/mtp_angle_r/value	/jointset/hip_l/hip_flexion_l/value	/jointset/hip_l/hip_adduction_l/value	/jointset/hip_l/hip_rotation_l/value	/jointset/knee_l/knee_angle_l/value	/jointset/ankle_l/ankle_angle_l/value	/jointset/subtalar_l/subtalar_angle_l/value	/jointset/mtp_l/mtp_angle_l/value	/jointset/back/lumbar_extension/value	/jointset/back/lumbar_bending/value	/jointset/back/lumbar_rotation/value	/jointset/acromial_r/arm_flex_r/value	/jointset/acromial_r/arm_add_r/value	/jointset/acromial_r/arm_rot_r/value	/jointset/elbow_r/elbow_flex_r/value	/jointset/radioulnar_r/pro_sup_r/value	/jointset/radius_hand_r/wrist_flex_r/value	/jointset/radius_hand_r/wrist_dev_r/value	/jointset/acromial_l/arm_flex_l/value	/jointset/acromial_l/arm_add_l/value	/jointset/acromial_l/arm_rot_l/value	/jointset/elbow_l/elbow_flex_l/value	/jointset/radioulnar_l/pro_sup_l/value	/jointset/radius_hand_l/wrist_flex_l/value	/jointset/radius_hand_l/wrist_dev_l/value	
          0.15754441	         -9.87101758	          6.30370822	        -13.03286673	          1.19743714	          0.96439179	          0.30801385	          2.38559028	        -13.66792309	          7.75885452	        -59.40178945	        -29.06250368	        -13.90109726	         -8.70045276	         82.66909651	        -10.53787183	          3.43769802	        -93.42049796	          5.67266514	        -12.43929102	         -2.04822899	        -11.16267973	         -6.19284211	         10.86689254	         86.66176088	         -2.76398768	         -0.00818221	        129.63195937	         73.60044508	         -7.61915128	          7.57000730	        -74.78845831	          0.62973012	         -0.00004296	         87.34624106	         60.14629026	        -13.43489836	          7.78211398	
          0.15817420	         -9.88676851	          6.28215568	        -12.93726901	          1.20456602	          0.96466536	          0.30808454	          2.36807980	        -13.64195361	          7.74405373	        -59.75554953	        -29.16346640	        -13.73286777	         -8.58170401	         82.61596219	        -10.53115095	          3.38493810	        -92.66379799	          5.55031357	        -12.30969425	         -2.13190267	        -11.20998168	         -6.23118991	         10.84300816	         86.55058444	         -2.93445530	         -0.01543990	        129.72514299	         73.54371027	         -7.52094478	          7.55059965	        -74.72530275	          0.58179894	         -0.00001351	         86.85944978	         60.26935196	        -13.54549606	          7.76539051	
          0.16016405	         -9.91563628	          6.21079096	        -12.63593516	          1.22706907	          0.96558809	          0.30831380	          2.30618025	        -13.55495385	          7.69565477	        -60.87180098	        -29.41071228	        -13.21940894	         -8.22194613	         82.37665250	        -10.50540820	          3.19977032	        -90.24151277	          5.14067518	        -11.96157587	         -2.40632758	        -11.38970119	         -6.35564726	         10.76637823	         86.13818200	         -3.51402666	         -0.05594568	        130.04322635	         73.34838100	         -7.21064423	          7.48925288	        -74.47799248	          0.40703589	         -0.00459973	         85.35096621	         60.67765615	        -13.89494640	          7.70879620	
          0.16160619	         -9.91337564	          6.15537229	        -12.42096756	          1.24336061	          0.96631436	          0.30848783	          2.25214237	        -13.48750568	          7.65976290	        -61.67947730	        -29.52068299	        -12.89079324	         -7.98421915	         82.13327580	        -10.48420061	          3.04851134	        -88.46143682	          4.82216487	        -11.77985150	         -2.61169796	        -11.55169776	         -6.44869685	         10.71221590	         85.78231526	         -3.97296178	         -0.09354429	        130.28597696	         73.19073397	         -6.98576511	          7.44482284	        -74.25703987	          0.25936720	         -0.01754966	         84.29411709	         60.99151381	        -14.14820088	          7.66535377	
          0.16160619	         -9.91337564	          6.15537229	        -12.42096756	          1.24336061	          0.96631436	          0.30848783	          2.25214237	        -13.48750568	          7.65976290	        -61.67947730	        -29.52068299	        -12.89079324	         -7.98421915	         82.13327580	        -10.48420061	          3.04851134	        -88.46143682	          4.82216487	        -11.77985150	         -2.61169796	        -11.55169776	         -6.44869685	         10.71221590	         85.78231526	         -3.97296178	         -0.09354429	        130.28597696	         73.19073397	         -6.98576511	          7.44482284	        -74.25703987	          0.25936720	         -0.01754966	         84.29411709	         60.99151381	        -14.14820088	          7.66535377	
          0.16223597	         -9.90552663	          6.13005930	        -12.32873986	          1.25047127	          0.96664711	          0.30856653	          2.22553136	        -13.45695644	          7.64418617	        -62.03188351	        -29.55053848	        -12.76460086	         -7.88846161	         82.00814952	        -10.47476125	          2.97810553	        -87.67901354	          4.67752471	        -11.72186977	         -2.70211534	        -11.63145465	         -6.49002190	         10.68963468	         85.61209267	         -4.18363284	         -0.11028096	        130.39281270	         73.11745634	         -6.88755802	          7.42541834	        -74.15036916	          0.18956080	         -0.02682908	         83.84388109	         61.13319294	        -14.25879885	          7.64597580	
          0.16422583	         -9.84991568	          6.04523193	        -12.04685151	          1.27292542	          0.96776257	          0.30882810	          2.12690656	        -13.35648693	          7.59689854	        -63.14388267	        -29.58867838	        -12.45818141	         -7.62723726	         81.53575031	        -10.44585978	          2.73920193	        -85.19284587	          4.20047857	        -11.63032625	         -2.98793056	        -11.92237855	         -6.62300472	         10.62499831	         85.01679069	         -4.89023050	         -0.14923067	        130.72071717	         72.86687502	         -6.57725888	          7.36407399	        -73.77739313	         -0.05127125	         -0.07595019	         82.47850719	         61.59812072	        -14.60824798	          7.58459545	
          0.16566797	         -9.77921374	          5.97908268	        -11.85476718	          1.28918892	          0.96863123	          0.30903237	          2.04212175	        -13.28011968	          7.56779111	        -63.94867652	        -29.57965286	        -12.32614038	         -7.48022281	         81.12100515	        -10.42807239	          2.55156723	        -83.38358593	          3.83863655	        -11.64900652	         -3.18835482	        -12.17052850	         -6.72157353	         10.58777194	         84.53147073	         -5.44122701	         -0.15582369	        130.94040432	         72.66644133	         -6.35237672	          7.31963919	        -73.47566291	         -0.24657475	         -0.12836389	         81.54944182	         61.95114288	        -14.86150530	          7.54031397	
          0.16566797	         -9.77921374	          5.97908268	        -11.85476718	          1.28918892	          0.96863123	          0.30903237	          2.04212175	        -13.28011968	          7.56779111	        -63.94867652	        -29.57965286	        -12.32614038	         -7.48022281	         81.12100515	        -10.42807239	          2.55156723	        -83.38358593	          3.83863655	        -11.64900652	         -3.18835482	        -12.17052850	         -6.72157353	         10.58777194	         84.53147073	         -5.44122701	         -0.15582369	        130.94040432	         72.66644133	         -6.35237672	          7.31963919	        -73.47566291	         -0.24657475	         -0.12836389	         81.54944182	         61.95114288	        -14.86150530	          7.54031397	
          0.16629775	         -9.74003211	          5.94893606	        -11.77490164	          1.29628903	          0.96902624	          0.30912609	          2.00171000	        -13.24586295	          7.55732347	        -64.29992293	        -29.56994342	        -12.29204258	         -7.42772609	         80.92103551	        -10.42171224	          2.46612689	        -82.59305979	          3.67711745	        -11.67879424	         -3.27178224	        -12.28881645	         -6.76517251	         10.57489063	         84.30547345	         -5.69203996	         -0.15119314	        131.02939468	         72.57375191	         -6.25417007	          7.30023130	        -73.33643461	         -0.33788455	         -0.15490325	         81.16180860	         62.10956721	        -14.97210289	          7.52093982	
          0.16828761	         -9.58271231	          5.84902128	        -11.54161386	          1.31871654	          0.97033596	          0.30944165	          1.86195921	        -13.13465647	          7.53720751	        -65.40912440	        -29.53103491	        -12.26429862	         -7.30746665	         80.21564180	        -10.40907198	          2.18345295	        -80.09985581	          3.15648586	        -11.85253230	         -3.50116871	        -12.70162116	         -6.90516611	         10.55043703	         83.53502454	         -6.52139687	         -0.10705131	        131.27428363	         72.25990582	         -5.94386992	          7.23888026	        -72.86489448	         -0.65453836	         -0.24087000	         80.00042639	         62.62851773	        -15.32155360	          7.45962778	
          0.16972974	         -9.43686698	          5.77399080	        -11.39176766	          1.33496790	          0.97134205	          0.30968953	          1.75034744	        -13.05341084	          7.53739768	        -66.21310384	        -29.49375733	        -12.29309872	         -7.25960631	         79.63637449	        -10.40658526	          1.96684600	        -78.30225861	          2.77286500	        -12.04429394	         -3.62245156	        -13.03678653	         -7.01066340	         10.54835544	         82.92102511	         -7.14808605	         -0.06242034	        131.40919130	         72.01195858	         -5.71898997	          7.19445562	        -72.49340544	         -0.90889602	         -0.30896060	         79.21259703	         63.02118453	        -15.57480710	          7.41518844	
          0.16972974	         -9.43686698	          5.77399080	        -11.39176766	          1.33496790	          0.97134205	          0.30968953	          1.75034744	        -13.05341084	          7.53739768	        -66.21310384	        -29.49375733	        -12.29309872	         -7.25960631	         79.63637449	        -10.40658526	          1.96684600	        -78.30225861	          2.77286500	        -12.04429394	         -3.62245156	        -13.03678653	         -7.01066340	         10.54835544	         82.92102511	         -7.14808605	         -0.06242034	        131.40919130	         72.01195858	         -5.71898997	          7.19445562	        -72.49340544	         -0.90889602	         -0.30896060	         79.21259703	         63.02118453	        -15.57480710	          7.41518844	
